<svg xmlns="http://www.w3.org/2000/svg" xmlns:xlink="http://www.w3.org/1999/xlink" viewBox="0 0 52 13"><path d="M -0.052 12 L -0.052 1.09 L 7.171 1.09 L 7.171 2.993 L 2.255 2.993 L 2.255 5.592 L 6.692 5.592 L 6.692 7.494 L 2.255 7.494 L 2.255 12 Z M 8.398 12 L 8.398 3.818 L 10.598 3.818 L 10.598 5.246 L 10.683 5.246 C 10.833 4.738 11.083 4.354 11.434 4.096 C 11.784 3.833 12.212 3.693 12.65 3.7 C 12.89 3.702 13.129 3.728 13.364 3.78 L 13.364 5.793 C 13.219 5.754 13.071 5.725 12.922 5.708 C 12.751 5.684 12.578 5.672 12.405 5.671 C 12.071 5.671 11.773 5.744 11.51 5.889 C 11.25 6.031 11.045 6.23 10.892 6.486 C 10.742 6.742 10.668 7.036 10.668 7.37 L 10.668 12 Z M 17.02 12.133 C 16.398 12.133 15.836 11.973 15.331 11.653 C 14.831 11.331 14.433 10.857 14.138 10.232 C 13.847 9.603 13.701 8.832 13.701 7.92 C 13.701 6.982 13.852 6.203 14.154 5.581 C 14.456 4.956 14.857 4.489 15.358 4.181 C 15.855 3.87 16.429 3.707 17.015 3.711 C 17.473 3.711 17.855 3.79 18.16 3.946 C 18.469 4.099 18.717 4.29 18.905 4.521 C 19.097 4.749 19.243 4.972 19.342 5.192 L 19.412 5.192 L 19.412 3.818 L 21.675 3.818 L 21.675 12 L 19.438 12 L 19.438 10.69 L 19.342 10.69 C 19.224 10.935 19.071 11.163 18.89 11.366 C 18.68 11.599 18.424 11.786 18.138 11.915 C 17.833 12.06 17.46 12.133 17.02 12.133 Z M 17.739 10.327 C 18.105 10.327 18.414 10.228 18.666 10.029 C 18.922 9.827 19.116 9.544 19.252 9.182 C 19.39 8.82 19.459 8.396 19.459 7.909 C 19.459 7.423 19.392 7 19.257 6.641 C 19.122 6.283 18.927 6.006 18.671 5.811 C 18.416 5.615 18.105 5.517 17.739 5.517 C 17.366 5.517 17.052 5.619 16.796 5.821 C 16.541 6.023 16.346 6.304 16.216 6.663 C 16.077 7.064 16.01 7.485 16.018 7.909 C 16.018 8.385 16.084 8.806 16.215 9.172 C 16.351 9.534 16.544 9.818 16.796 10.024 C 17.052 10.226 17.366 10.327 17.739 10.327 Z M 23.391 12 L 23.391 3.818 L 25.554 3.818 L 25.554 5.262 L 25.65 5.262 C 25.82 4.782 26.104 4.404 26.502 4.127 C 26.9 3.85 27.375 3.712 27.929 3.712 C 28.491 3.712 28.969 3.852 29.362 4.132 C 29.757 4.409 30.019 4.786 30.151 5.262 L 30.236 5.262 C 30.403 4.793 30.705 4.418 31.141 4.138 C 31.581 3.854 32.102 3.712 32.702 3.712 C 33.466 3.712 34.085 3.955 34.562 4.442 C 35.041 4.924 35.28 5.61 35.28 6.498 L 35.28 12 L 33.016 12 L 33.016 6.945 C 33.016 6.49 32.896 6.149 32.654 5.922 C 32.409 5.694 32.084 5.572 31.749 5.582 C 31.337 5.582 31.015 5.712 30.785 5.976 C 30.554 6.235 30.438 6.577 30.438 7.004 L 30.438 12 L 28.238 12 L 28.238 6.897 C 28.238 6.496 28.123 6.177 27.892 5.938 C 27.665 5.7 27.365 5.581 26.992 5.581 C 26.74 5.581 26.512 5.645 26.31 5.773 C 26.111 5.897 25.953 6.073 25.836 6.3 C 25.714 6.545 25.653 6.816 25.66 7.089 L 25.66 12 Z M 40.651 12.16 C 39.81 12.16 39.085 11.99 38.478 11.648 C 37.88 11.309 37.395 10.801 37.083 10.188 C 36.756 9.557 36.593 8.809 36.593 7.946 C 36.593 7.105 36.756 6.366 37.083 5.73 C 37.392 5.113 37.871 4.598 38.463 4.244 C 39.059 3.889 39.758 3.712 40.561 3.712 C 41.101 3.712 41.603 3.799 42.068 3.972 C 42.538 4.143 42.946 4.401 43.294 4.745 C 43.645 5.089 43.919 5.523 44.114 6.045 C 44.309 6.563 44.407 7.17 44.407 7.866 L 44.407 8.49 L 37.498 8.49 L 37.498 7.083 L 42.271 7.083 C 42.277 6.78 42.203 6.481 42.058 6.215 C 41.92 5.967 41.714 5.762 41.466 5.624 C 41.202 5.474 40.902 5.399 40.598 5.406 C 40.254 5.406 39.948 5.486 39.682 5.646 C 39.423 5.798 39.21 6.017 39.064 6.279 C 38.913 6.547 38.834 6.85 38.835 7.158 L 38.835 8.495 C 38.835 8.9 38.91 9.25 39.059 9.545 C 39.211 9.839 39.426 10.066 39.703 10.226 C 39.98 10.386 40.309 10.466 40.689 10.466 C 40.941 10.466 41.172 10.43 41.381 10.359 C 41.788 10.228 42.112 9.918 42.26 9.517 L 44.359 9.657 C 44.259 10.147 44.034 10.602 43.704 10.977 C 43.377 11.35 42.954 11.641 42.436 11.851 C 41.921 12.057 41.326 12.16 40.651 12.16 Z M 45.738 12 L 45.738 3.818 L 47.938 3.818 L 47.938 5.246 L 48.023 5.246 C 48.172 4.738 48.423 4.354 48.773 4.096 C 49.123 3.833 49.55 3.694 49.988 3.701 C 50.228 3.703 50.467 3.729 50.702 3.781 L 50.702 5.794 C 50.557 5.755 50.409 5.726 50.26 5.709 C 50.089 5.685 49.916 5.673 49.743 5.672 C 49.409 5.672 49.111 5.745 48.848 5.89 C 48.592 6.029 48.378 6.236 48.231 6.487 C 48.081 6.743 48.007 7.037 48.007 7.371 L 48.007 12 L 45.737 12 Z" fill="rgb(0,0,0)"></path></svg>